<svg xmlns="http://www.w3.org/2000/svg" id="export" class="canvas" preserveAspectRatio="xMidYMid meet" style="" width="95" height="340"><rect id="background" fill="#fff" pointer-events="all" width="95" height="340"/><g id="origin" transform="translate(4.2763671875, 4.2763671875) scale(1)"><g id="clusters" class="clusters"/><g id="edge-paths" class="edge-paths"><defs><marker id="arrowhead" viewBox="0 0 10 10" refX="9" refY="5" markerUnits="strokeWidth" markerWidth="8" markerHeight="6" orient="auto" style="fill: rgb(0, 0, 0);"><path d="M 0 0 L 10 5 L 0 10 L 4 5 z" style="stroke-width: 1;"/></marker><marker id="arrowhead-select" viewBox="0 0 10 10" refX="9" refY="5" markerUnits="strokeWidth" markerWidth="8" markerHeight="6" orient="auto" style="fill: rgb(238, 0, 0);"><path d="M 0 0 L 10 5 L 0 10 L 4 5 z" style="stroke-width: 1;"/></marker><marker id="arrowhead-hover" viewBox="0 0 10 10" refX="9" refY="5" markerUnits="strokeWidth" markerWidth="8" markerHeight="6" orient="auto"><path d="M 0 0 L 10 5 L 0 10 L 4 5 z" style="stroke-width: 1;"/></marker></defs><path id="edge-onnx::Gemm_0" class="edge-path" d="M42.763671875,23L42.763671875,24.666666666666668C42.763671875,26.333333333333332,42.763671875,29.666666666666668,42.763671875,35C42.763671875,40.333333333333336,42.763671875,47.666666666666664,42.763671875,55C42.763671875,62.333333333333336,42.763671875,69.66666666666667,42.763671875,75C42.763671875,80.33333333333333,42.763671875,83.66666666666667,42.763671875,85.33333333333333L42.763671875,87" style="stroke: rgb(0, 0, 0); stroke-width: 1px; fill: none; marker-end: url(&quot;#arrowhead&quot;);"/><path class="edge-path-hit-test" d="M42.763671875,23L42.763671875,24.666666666666668C42.763671875,26.333333333333332,42.763671875,29.666666666666668,42.763671875,35C42.763671875,40.333333333333336,42.763671875,47.666666666666664,42.763671875,55C42.763671875,62.333333333333336,42.763671875,69.66666666666667,42.763671875,75C42.763671875,80.33333333333333,42.763671875,83.66666666666667,42.763671875,85.33333333333333L42.763671875,87" style="pointer-events: stroke; stroke-width: 0.5em; fill: none; stroke: rgb(0, 0, 0); stroke-opacity: 0.001;"/><path id="edge-/layer1/Gemm_output_0" class="edge-path" d="M42.763671875,144L42.763671875,145.66666666666666C42.763671875,147.33333333333334,42.763671875,150.66666666666666,42.763671875,154C42.763671875,157.33333333333334,42.763671875,160.66666666666666,42.763671875,162.33333333333334L42.763671875,164" style="stroke: rgb(0, 0, 0); stroke-width: 1px; fill: none; marker-end: url(&quot;#arrowhead&quot;);"/><path class="edge-path-hit-test" d="M42.763671875,144L42.763671875,145.66666666666666C42.763671875,147.33333333333334,42.763671875,150.66666666666666,42.763671875,154C42.763671875,157.33333333333334,42.763671875,160.66666666666666,42.763671875,162.33333333333334L42.763671875,164" style="pointer-events: stroke; stroke-width: 0.5em; fill: none; stroke: rgb(0, 0, 0); stroke-opacity: 0.001;"/><path id="edge-/layer2/LeakyRelu_output_0" class="edge-path" d="M42.763671875,187L42.763671875,188.66666666666666C42.763671875,190.33333333333334,42.763671875,193.66666666666666,42.763671875,197C42.763671875,200.33333333333334,42.763671875,203.66666666666666,42.763671875,205.33333333333334L42.763671875,207" style="stroke: rgb(0, 0, 0); stroke-width: 1px; fill: none; marker-end: url(&quot;#arrowhead&quot;);"/><path class="edge-path-hit-test" d="M42.763671875,187L42.763671875,188.66666666666666C42.763671875,190.33333333333334,42.763671875,193.66666666666666,42.763671875,197C42.763671875,200.33333333333334,42.763671875,203.66666666666666,42.763671875,205.33333333333334L42.763671875,207" style="pointer-events: stroke; stroke-width: 0.5em; fill: none; stroke: rgb(0, 0, 0); stroke-opacity: 0.001;"/><path id="edge-7" class="edge-path" d="M42.763671875,264L42.763671875,267.6666666666667C42.763671875,271.3333333333333,42.763671875,278.6666666666667,42.763671875,286C42.763671875,293.3333333333333,42.763671875,300.6666666666667,42.763671875,304.3333333333333L42.763671875,308" style="stroke: rgb(0, 0, 0); stroke-width: 1px; fill: none; marker-end: url(&quot;#arrowhead&quot;);"/><path class="edge-path-hit-test" d="M42.763671875,264L42.763671875,267.6666666666667C42.763671875,271.3333333333333,42.763671875,278.6666666666667,42.763671875,286C42.763671875,293.3333333333333,42.763671875,300.6666666666667,42.763671875,304.3333333333333L42.763671875,308" style="pointer-events: stroke; stroke-width: 0.5em; fill: none; stroke: rgb(0, 0, 0); stroke-opacity: 0.001;"/></g><g id="edge-labels" class="edge-labels"><text class="edge-label" id="edge-label-edge-onnx::Gemm_0" transform="translate(47.763671875,48)" style="opacity: 1; font-family: -apple-system, BlinkMacSystemFont, &quot;Segoe WPC&quot;, &quot;Segoe UI&quot;, Ubuntu, &quot;Droid Sans&quot;, sans-serif, &quot;PingFang SC&quot;; font-size: 10px;"><tspan xml:space="preserve" dy="1em" x="1">1×7</tspan></text><text class="edge-label" id="edge-label-edge-7" transform="translate(47.763671875,279)" style="opacity: 1; font-family: -apple-system, BlinkMacSystemFont, &quot;Segoe WPC&quot;, &quot;Segoe UI&quot;, Ubuntu, &quot;Droid Sans&quot;, sans-serif, &quot;PingFang SC&quot;; font-size: 10px;"><tspan xml:space="preserve" dy="1em" x="1">1×1</tspan></text></g><g id="nodes" class="nodes"><g id="input-name-onnx::Gemm_0" class="node graph-input" transform="translate(0,0)" style=""><g class="node-item graph-item-input" transform="translate(0,0)"><path d="M5,0h75.52734375a5,5 0 0 1 5,5v13a5,5 0 0 1 -5,5h-75.52734375a5,5 0 0 1 -5,-5v-13a5,5 0 0 1 5,-5z" style="stroke: rgb(0, 0, 0); fill: rgb(238, 238, 238); stroke-width: 0;"/><text x="6" y="16" style="font-family: -apple-system, BlinkMacSystemFont, &quot;Segoe WPC&quot;, &quot;Segoe UI&quot;, Ubuntu, &quot;Droid Sans&quot;, sans-serif, &quot;PingFang SC&quot;; font-size: 11px; text-rendering: geometricprecision; user-select: none;">onnx::Gemm_0</text><title>float32[1,7]</title></g><path class="node node-border" d="M5,0h75.52734375a5,5 0 0 1 5,5v13a5,5 0 0 1 -5,5h-75.52734375a5,5 0 0 1 -5,-5v-13a5,5 0 0 1 5,-5z" style="stroke: rgb(51, 51, 51); fill: none; stroke-width: 1px;"/></g><g id="node-name-/layer1/Gemm" class="node graph-node" transform="translate(5.263671875,87)" style=""><g class="node-item node-item-type node-item-type-layer" transform="translate(0,0)"><path d="M5,0h65a5,5 0 0 1 5,5v18a0,0 0 0 1 0,0h-75a0,0 0 0 1 0,0v-18a5,5 0 0 1 5,-5z" style="stroke: rgb(0, 0, 0); fill: rgb(51, 85, 136); stroke-width: 0;"/><text x="6" y="16" style="font-family: -apple-system, BlinkMacSystemFont, &quot;Segoe WPC&quot;, &quot;Segoe UI&quot;, Ubuntu, &quot;Droid Sans&quot;, sans-serif, &quot;PingFang SC&quot;; font-size: 11px; text-rendering: geometricprecision; user-select: none; fill: rgb(255, 255, 255);">Gemm</text><title>/layer1/Gemm</title></g><g class="node-attribute-list" transform="translate(0,23)"><path d="M0,0h75a0,0 0 0 1 0,0v29a5,5 0 0 1 -5,5h-65a5,5 0 0 1 -5,-5v-29a0,0 0 0 1 0,0z" style="stroke: rgb(0, 0, 0); fill: rgb(255, 255, 255); stroke-width: 0;"/><g class="node-attribute"><text xml:space="preserve" x="6" y="14" style="font-family: -apple-system, BlinkMacSystemFont, &quot;Segoe WPC&quot;, &quot;Segoe UI&quot;, Ubuntu, &quot;Droid Sans&quot;, sans-serif, &quot;PingFang SC&quot;; font-size: 9px; font-weight: normal; text-rendering: geometricprecision; user-select: none;"><title>float32[4,7]</title><tspan style="font-weight: bold;">B</tspan><tspan>〈4×7〉</tspan></text></g><g class="node-attribute"><text xml:space="preserve" x="6" y="28" style="font-family: -apple-system, BlinkMacSystemFont, &quot;Segoe WPC&quot;, &quot;Segoe UI&quot;, Ubuntu, &quot;Droid Sans&quot;, sans-serif, &quot;PingFang SC&quot;; font-size: 9px; font-weight: normal; text-rendering: geometricprecision; user-select: none;"><title>float32[4]</title><tspan style="font-weight: bold;">C</tspan><tspan>〈4〉</tspan></text></g><line class="node" x1="0" x2="75" y1="0" y2="0" style="stroke: rgb(51, 51, 51); fill: none; stroke-width: 1px;"/></g><path class="node node-border" d="M5,0h65a5,5 0 0 1 5,5v47a5,5 0 0 1 -5,5h-65a5,5 0 0 1 -5,-5v-47a5,5 0 0 1 5,-5z" style="stroke: rgb(51, 51, 51); fill: none; stroke-width: 1px;"/></g><g id="node-name-/layer2/LeakyRelu" class="node graph-node" transform="translate(11.654296875,164)" style=""><g class="node-item node-item-type node-item-type-activation" transform="translate(0,0)"><path d="M5,0h52.21875a5,5 0 0 1 5,5v13a5,5 0 0 1 -5,5h-52.21875a5,5 0 0 1 -5,-5v-13a5,5 0 0 1 5,-5z" style="stroke: rgb(0, 0, 0); fill: rgb(112, 41, 33); stroke-width: 0;"/><text x="6" y="16" style="font-family: -apple-system, BlinkMacSystemFont, &quot;Segoe WPC&quot;, &quot;Segoe UI&quot;, Ubuntu, &quot;Droid Sans&quot;, sans-serif, &quot;PingFang SC&quot;; font-size: 11px; text-rendering: geometricprecision; user-select: none; fill: rgb(255, 255, 255);">LeakyRelu</text><title>/layer2/LeakyRelu</title></g><path class="node node-border" d="M5,0h52.21875a5,5 0 0 1 5,5v13a5,5 0 0 1 -5,5h-52.21875a5,5 0 0 1 -5,-5v-13a5,5 0 0 1 5,-5z" style="stroke: rgb(51, 51, 51); fill: none; stroke-width: 1px;"/></g><g id="node-name-/layer3/Gemm" class="node graph-node" transform="translate(5.263671875,207)" style=""><g class="node-item node-item-type node-item-type-layer" transform="translate(0,0)"><path d="M5,0h65a5,5 0 0 1 5,5v18a0,0 0 0 1 0,0h-75a0,0 0 0 1 0,0v-18a5,5 0 0 1 5,-5z" style="stroke: rgb(0, 0, 0); fill: rgb(51, 85, 136); stroke-width: 0;"/><text x="6" y="16" style="font-family: -apple-system, BlinkMacSystemFont, &quot;Segoe WPC&quot;, &quot;Segoe UI&quot;, Ubuntu, &quot;Droid Sans&quot;, sans-serif, &quot;PingFang SC&quot;; font-size: 11px; text-rendering: geometricprecision; user-select: none; fill: rgb(255, 255, 255);">Gemm</text><title>/layer3/Gemm</title></g><g class="node-attribute-list" transform="translate(0,23)"><path d="M0,0h75a0,0 0 0 1 0,0v29a5,5 0 0 1 -5,5h-65a5,5 0 0 1 -5,-5v-29a0,0 0 0 1 0,0z" style="stroke: rgb(0, 0, 0); fill: rgb(255, 255, 255); stroke-width: 0;"/><g class="node-attribute"><text xml:space="preserve" x="6" y="14" style="font-family: -apple-system, BlinkMacSystemFont, &quot;Segoe WPC&quot;, &quot;Segoe UI&quot;, Ubuntu, &quot;Droid Sans&quot;, sans-serif, &quot;PingFang SC&quot;; font-size: 9px; font-weight: normal; text-rendering: geometricprecision; user-select: none;"><title>float32[1,4]</title><tspan style="font-weight: bold;">B</tspan><tspan>〈1×4〉</tspan></text></g><g class="node-attribute"><text xml:space="preserve" x="6" y="28" style="font-family: -apple-system, BlinkMacSystemFont, &quot;Segoe WPC&quot;, &quot;Segoe UI&quot;, Ubuntu, &quot;Droid Sans&quot;, sans-serif, &quot;PingFang SC&quot;; font-size: 9px; font-weight: normal; text-rendering: geometricprecision; user-select: none;"><title>float32[1]</title><tspan style="font-weight: bold;">C</tspan><tspan>〈1〉</tspan></text></g><line class="node" x1="0" x2="75" y1="0" y2="0" style="stroke: rgb(51, 51, 51); fill: none; stroke-width: 1px;"/></g><path class="node node-border" d="M5,0h65a5,5 0 0 1 5,5v47a5,5 0 0 1 -5,5h-65a5,5 0 0 1 -5,-5v-47a5,5 0 0 1 5,-5z" style="stroke: rgb(51, 51, 51); fill: none; stroke-width: 1px;"/></g><g class="node" transform="translate(32.763671875,308)" style=""><g class="node-item graph-item-output" transform="translate(0,0)"><path d="M5,0h10a5,5 0 0 1 5,5v13a5,5 0 0 1 -5,5h-10a5,5 0 0 1 -5,-5v-13a5,5 0 0 1 5,-5z" style="stroke: rgb(0, 0, 0); fill: rgb(238, 238, 238); stroke-width: 0;"/><text x="6" y="16" style="font-family: -apple-system, BlinkMacSystemFont, &quot;Segoe WPC&quot;, &quot;Segoe UI&quot;, Ubuntu, &quot;Droid Sans&quot;, sans-serif, &quot;PingFang SC&quot;; font-size: 11px; text-rendering: geometricprecision; user-select: none;">7</text><title>float32[1,1]</title></g><path class="node node-border" d="M5,0h10a5,5 0 0 1 5,5v13a5,5 0 0 1 -5,5h-10a5,5 0 0 1 -5,-5v-13a5,5 0 0 1 5,-5z" style="stroke: rgb(51, 51, 51); fill: none; stroke-width: 1px;"/></g></g></g></svg>